# AST/ASF file generated using VICON BodyLanguage
# -----------------------------------------------
:version 1.10
:name VICON
:units
  mass 1.0
  length 0.45
  angle deg
:documentation
   .ast/.asf automatically generated from VICON data using
   VICON BodyBuilder and BodyLanguage model FoxedUp or BRILLIANT.MOD
:root
   order TX TY TZ RX RY RZ
   axis XYZ
   position 0 0 0  
   orientation 0 0 0 
:bonedata
  begin
     id 1 
     name lhipjoint
     direction 0.541323 -0.757556 0.364798 
     length 2.47576 
     axis 0 0 0  XYZ
  end
  begin
     id 2 
     name lfemur
     direction 0.34202 -0.939693 0  
     length 7.46493  
     axis 0 0 20  XYZ
    dof rx ry rz
    limits (-160.0 20.0)
           (-70.0 70.0)
           (-60.0 70.0)
  end
  begin
     id 3 
     name ltibia
     direction 0.34202 -0.939693 0   
     length 7.73805   
     axis 0 0 20   XYZ
    dof rx
    limits (-10.0 170.0)
  end
  begin
     id 4 
     name lfoot
     direction 0.107174 -0.294458 0.949636   
     length 2.25864   
     axis -90 7.62852e-016 20   XYZ
    dof rx rz
    limits (-45.0 90.0)
           (-70.0 20.0)
  end
  begin
     id 5 
     name ltoes
     direction 1.53606e-011 -4.21934e-011 1   
     length 1.12451   
     axis -90 7.62852e-016 20   XYZ
    dof rx
    limits (-90.0 20.0)
  end
  begin
     id 6 
     name rhipjoint
     direction -0.524745 -0.766967 0.36933   
     length 2.44538  
     axis 0 0 0  XYZ 
  end
  begin
     id 7 
     name rfemur
     direction -0.34202 -0.939693 0   
     length 7.61604   
     axis 0 0 -20   XYZ
    dof rx ry rz
    limits (-160.0 20.0)
           (-70.0 70.0)
           (-70.0 60.0)
  end
  begin
     id 8 
     name rtibia
     direction -0.34202 -0.939693 0   
     length 7.61056   
     axis 0 0 -20   XYZ
    dof rx
    limits (-10.0 170.0)
 end
 begin
     id 9 
     name rfoot
     direction -0.12616 -0.346623 0.929482   
     length 2.46372  
     axis -90 -7.62852e-016 -20   XYZ
    dof rx rz
    limits (-45.0 90.0)
           (-20.0 70.0)
  end
  begin
     id 10 
     name rtoes
     direction -1.53531e-011 -4.22004e-011 1   
     length 1.21611   
     axis -90 -7.62852e-016 -20   XYZ
    dof rx
    limits (-90.0 20.0)
  end
  begin
     id 11 
     name lowerback
     direction -0.000778023 0.997293 -0.0735223   
     length 2.06139   
     axis 0 0 0   XYZ
    dof rx ry rz
    limits (-20.0 45.0)
           (-30.0 30.0)
           (-30.0 30.0)
  end
  begin
     id 12 
     name upperback
     direction 0.0222598 0.999722 -0.0078355   
     length 2.06383   
     axis 0 0 0   XYZ
    dof rx ry rz
    limits (-20.0 45.0)
           (-30.0 30.0)
           (-30.0 30.0)
  end
  begin
     id 13 
     name thorax
     direction 0.0219654 0.999405 0.0265994   
     length 2.07163   
     axis 0 0 0   XYZ
    dof rx ry rz
    limits (-20.0 45.0)
           (-30.0 30.0)
           (-30.0 30.0)
  end
  begin
     id 14 
     name lowerneck
     direction 0.0213282 0.988147 0.15202   
     length 1.75969   
     axis 0 0 0   XYZ
    dof rx ry rz
    limits (-20.0 45.0)
           (-30.0 30.0)
           (-30.0 30.0)
  end
  begin
     id 15 
     name upperneck
     direction -0.0546456 0.982624 -0.177379   
     length 1.79244   
     axis 0 0 0   XYZ
    dof rx ry rz
    limits (-20.0 45.0)
           (-30.0 30.0)
           (-30.0 30.0)
  end
  begin
     id 16
     name head
     direction -0.0199987 0.996855 -0.076686  
     length 1.80555  
     axis 0 0 0   XYZ
    dof rx ry rz
    limits (-20.0 45.0)
           (-30.0 30.0)
           (-30.0 30.0)
  end
  begin
     id 17 
     name lclavicle
     direction 0.929565 0.363219 -0.063096  
     length 3.55722  
     axis 0 0 0   XYZ
    dof ry rz
    limits (-20.0 10.0)
           (0.0 20.0)
  end
  begin
     id 18 
     name lhumerus
     direction 1 -4.48993e-011 -2.36203e-027   
     length 4.92785   
     axis 180 -30 -90   XYZ
    dof rx ry rz
    limits (-60.0 90.0)
           (-90.0 90.0)
           (-90.0 90.0)
  end
  begin
     id 19
     name lradius
     direction 1 -4.48947e-011 2.02997e-027   
     length 3.44052   
     axis 180 -30 -90   XYZ
    dof rx
    limits (-10.0 170.0)
  end
  begin
     id 20
     name lwrist
     direction 1 -4.48962e-011 1.45991e-027   
     length 1.72026   
     axis 1.49639e-024 90 90   XYZ
    dof ry
    limits (-180.0 0.0)
 end
  begin
     id 21 
     name lhand
     direction 1 -4.48984e-011 2.91906e-027   
     length 0.654326   
     axis -1.863e-015 90 90   XYZ
    dof rx rz
    limits (-90.0 90.0)
           (-45.0 45.0)
  end
  begin
     id 22 
     name lfingers
     direction 1 -4.48961e-011 5.83968e-027   
     length 0.527534   
     axis -3.72598e-015 90 90   XYZ
    dof rx
    limits (0.0 90.0)
  end
  begin
     id 23
     name lthumb
     direction 0.707107 -6.34963e-011 0.707107   
     length 0.757437   
     axis -90 45 -6.68868e-015   XYZ
    dof rx rz
    limits (-45.0 45.0)
           (-45.0 45.0)
  end
  begin
     id 24 
     name rclavicle
     direction -0.902944 0.422599 -0.0781198   
     length 3.54432  
     axis 0 0 0   XYZ 
    dof ry rz
    limits (-10.0 20.0)
           (-20.0 0.0)
  end
  begin
     id 25 
     name rhumerus
     direction -1 -4.48953e-011 -4.75835e-028  
     length 5.09181   
     axis 180 30 90   XYZ
    dof rx ry rz
    limits (-90.0 60.0)
           (-90.0 90.0)
           (-90.0 90.0)
  end
  begin
     id 26 
     name rradius
     direction -1 -4.48986e-011 -3.25889e-027   
     length 3.49865   
     axis 180 30 90   XYZ
    dof rx
    limits (-10.0 170.0)
  end
  begin
     id 27 
     name rwrist
     direction -1 -4.48963e-011 1.45989e-027   
     length 1.74933   
     axis 1.49639e-024 -90 -90   XYZ
    dof ry
    limits (-180.0 0.0)
  end
  begin
     id 28
     name rhand
     direction -1 -4.49003e-011 2.91844e-027   
     length 0.66641   
     axis -1.863e-015 -90 -90   XYZ
    dof rx rz
    limits (-90.0 90.0)
           (-45.0 45.0)
  end
  begin
     id 29
     name rfingers
     direction -1 -4.48973e-011 5.83886e-027   
     length 0.537277   
     axis -3.72598e-015 -90 -90   XYZ
    dof rx
    limits (0.0 90.0)
  end
  begin
     id 30
     name rthumb
     direction -0.707107 -6.34976e-011 0.707107   
     length 0.771425   
     axis -90 -45 6.68868e-015   XYZ
    dof rx rz
    limits (-45.0 45.0)
           (-45.0 45.0)
  end
:hierarchy
  begin
    root lhipjoint rhipjoint lowerback
    lhipjoint lfemur
    lfemur ltibia
    ltibia lfoot
    lfoot ltoes
    rhipjoint rfemur
    rfemur rtibia
    rtibia rfoot
    rfoot rtoes
    lowerback upperback
    upperback thorax
    thorax lowerneck lclavicle rclavicle
    lowerneck upperneck
    upperneck head
    lclavicle lhumerus
    lhumerus lradius
    lradius lwrist
    lwrist lhand lthumb
    lhand lfingers
    rclavicle rhumerus
    rhumerus rradius
    rradius rwrist
    rwrist rhand rthumb
    rhand rfingers
  end

#!OML:ASF H:\LiuWeirdWalks\Patient Classification 1\Patient 1\Session 1\male.ASF
:FULLY-SPECIFIED
:DEGREES
222
root 0.524246 18.006 -24.6059 11.3746 -3.65243 -21.1986
lowerback 10.6555 -0.950069 -6.77969
upperback 1.36406 -2.39284 -6.91631
thorax -4.58558 -1.11916 -3.11165
lowerneck -16.9531 4.15909 10.2923
upperneck 16.9618 1.82499 6.04244
head 8.20141 2.15495 0.589105
rclavicle -4.29375e-014 -5.08889e-014
rhumerus -24.0701 -30.2534 3.5074
rradius 28.2865
rwrist -3.4868
rhand -19.5589 -4.09368
rfingers 7.12502
rthumb 6.76562 -33.9656
lclavicle -4.29375e-014 -5.08889e-014
lhumerus -21.785 32.2439 33.5282
lradius 28.385
lwrist 5.9617
lhand -22.0198 0.429342
lfingers 7.12502
lthumb 4.38967 30.3638
rfemur 6.12925 -2.09004 30.3089
rtibia 14.2323
rfoot 10.2557 -2.62198
rtoes -25.9088
lfemur -28.7993 4.11098 8.31828
ltibia 38.3833
lfoot -7.42204 18.2253
ltoes -9.28679
223
root 0.539778 18.0091 -24.557 11.4482 -3.55204 -21.5105
lowerback 10.6291 -0.954839 -6.91112
upperback 1.35033 -2.41434 -6.96115
thorax -4.58228 -1.12749 -3.08364
lowerneck -16.9999 4.11165 10.28
upperneck 16.8987 1.74326 6.13411
head 8.18665 2.1226 0.611805
rclavicle -1.90833e-014 -5.08889e-014
rhumerus -24.0192 -30.2739 3.75471
rradius 28.2594
rwrist -3.40568
rhand -19.4513 -4.46164
rfingers 7.12502
rthumb 6.86949 -34.3302
lclavicle -1.90833e-014 -5.08889e-014
lhumerus -21.6867 32.0921 33.7188
lradius 28.6343
lwrist 6.49703
lhand -22.2119 0.764511
lfingers 7.12502
lthumb 4.20414 30.7028
rfemur 6.08947 -2.37205 30.4538
rtibia 14.2388
rfoot 10.9474 -2.01714
rtoes -25.884
lfemur -28.6966 3.78907 8.63847
ltibia 38.3944
lfoot -7.58082 18.5878
ltoes -9.06492
224
root 0.556185 18.0127 -24.5083 11.4995 -3.44507 -21.7903
lowerback 10.6199 -0.958791 -7.04374
upperback 1.34201 -2.43697 -7.01797
thorax -4.58339 -1.13641 -3.06742
lowerneck -17.0543 4.05684 10.2448
upperneck 16.8336 1.65607 6.22833
head 8.17201 2.08645 0.638333
rclavicle -1.90833e-014 -7.63333e-014
rhumerus -23.9946 -30.2779 4.00779
rradius 28.2168
rwrist -3.24431
rhand -19.4142 -4.7951
rfingers 7.12502
rthumb 6.90537 -34.6625
lclavicle -1.90833e-014 -7.63333e-014
lhumerus -21.5721 31.9725 33.8815
lradius 28.8261
lwrist 6.84955
lhand -22.3351 0.934587
lfingers 7.12502
lthumb 4.08522 30.8752
rfemur 6.03699 -2.66826 30.5629
rtibia 14.304
rfoot 11.6527 -1.43044
rtoes -25.8087
lfemur -28.5646 3.47797 8.92045
ltibia 38.3735
lfoot -7.74296 18.9092
ltoes -8.84461
225
root 0.573953 18.0168 -24.459 11.5182 -3.35249 -22.0363
lowerback 10.6269 -0.958311 -7.19037
upperback 1.34198 -2.45655 -7.07595
thorax -4.5842 -1.14366 -3.04493
lowerneck -17.1313 3.99842 10.1732
upperneck 16.802 1.56662 6.32717
head 8.17204 2.04945 0.672768
rclavicle -1.90833e-014 -1.20861e-013
rhumerus -23.954 -30.2326 4.2444
rradius 28.1766
rwrist -3.00697
rhand -19.451 -5.19659
rfingers 7.12502
rthumb 6.86985 -35.0651
lclavicle -1.90833e-014 -1.20861e-013
lhumerus -21.4657 31.9071 34.0166
lradius 28.95
lwrist 6.99126
lhand -22.3878 0.994073
lfingers 7.12502
lthumb 4.03428 30.9356
rfemur 5.98547 -2.97894 30.6237
rtibia 14.4284
rfoot 12.3775 -0.863619
rtoes -25.658
lfemur -28.3821 3.18091 9.15694
ltibia 38.3264
lfoot -7.90813 19.1984
ltoes -8.65143
226
root 0.592798 18.0213 -24.4102 11.5153 -3.2496 -22.2616
lowerback 10.6294 -0.958595 -7.32638
upperback 1.35685 -2.47366 -7.13248
thorax -4.567 -1.15038 -3.02722
lowerneck -17.2425 3.93929 10.0934
upperneck 16.8052 1.47284 6.4149
head 8.18985 2.01118 0.70549
rclavicle 2.8625e-014 6.04305e-014
rhumerus -23.9336 -30.2159 4.51315
rradius 28.122
rwrist -2.87558
rhand -19.5119 -5.30765
rfingers 7.12502
rthumb 6.81102 -35.1781
lclavicle 2.8625e-014 6.04305e-014
lhumerus -21.3466 31.8648 34.1479
lradius 29.021
lwrist 7.0257
lhand -22.4285 0.999634
lfingers 7.12502
lthumb 3.99503 30.9419
rfemur 5.91753 -3.30367 30.6607
rtibia 14.6167
rfoot 13.1152 -0.345107
rtoes -25.4111
lfemur -28.1758 2.89448 9.36547
ltibia 38.2571
lfoot -8.05562 19.4425
ltoes -8.52288
227
root 0.612612 18.0257 -24.362 11.4902 -3.13383 -22.4597
lowerback 10.6372 -0.963227 -7.46445
upperback 1.38875 -2.49513 -7.18349
thorax -4.53428 -1.15963 -3.00183
lowerneck -17.3724 3.8996 10.0511
upperneck 16.8097 1.40217 6.45756
head 8.21248 1.98213 0.72052
rclavicle -1.11319e-014 -6.36111e-014
rhumerus -23.9033 -30.2331 4.78258
rradius 28.0888
rwrist -2.8214
rhand -19.5554 -5.45802
rfingers 7.12502
rthumb 6.76901 -35.3298
lclavicle -1.11319e-014 -6.36111e-014
lhumerus -21.2168 31.8558 34.2855
lradius 29.0542
lwrist 7.02136
lhand -22.4626 0.978409
lfingers 7.12502
lthumb 3.96203 30.9213
rfemur 5.82795 -3.63815 30.6687
rtibia 14.8791
rfoot 13.8605 0.132176
rtoes -25.0643
lfemur -27.9538 2.61635 9.53893
ltibia 38.1702
lfoot -8.19717 19.6451
ltoes -8.4503
